<?xml version="1.0" encoding="UTF-8"?>
<svg id="_лого" data-name="лого" xmlns="http://www.w3.org/2000/svg" version="1.1" xmlns:xlink="http://www.w3.org/1999/xlink" viewBox="0 0 240.96 223.2">
  <!-- Generator: Adobe Illustrator 29.3.1, SVG Export Plug-In . SVG Version: 2.1.0 Build 151)  -->
  <defs>
    <style>
      .st0 {
        fill: #fff;
        filter: url(#drop-shadow-1);
      }
    </style>
    <filter id="drop-shadow-1" x="0" y="0" width="240.96" height="223.2" filterUnits="userSpaceOnUse">
      <feOffset dx="7" dy="7"/>
      <feGaussianBlur result="blur" stdDeviation="5"/>
      <feFlood flood-color="#1d1d1b" flood-opacity=".75"/>
      <feComposite in2="blur" operator="in"/>
      <feComposite in="SourceGraphic"/>
    </filter>
  </defs>
  <path class="st0" d="M135.26,99.62c1.67,1.67,3.33,3.33,5,5h78v56c-.39,3.37-1.36,8.42-4,14-1.22,2.59-5.24,10.44-14,17-1.71,1.28-7.77,5.64-17,8-8.53,2.18-15.77,1.64-20,1v-77.01c-16.67,17.34-33.33,34.67-50,52.01-16.67-17.33-33.33-34.67-50-52-.17,25.5-.33,51-.5,76.5-2.7.48-22.13,3.63-38-10-11.69-10.04-14.36-23.1-15-27v-60.03c21.17.18,42.33.36,63.5.53h6.73c5.33,0,10.76-4.22,12.11-9.38.05-.21.11-.41.16-.62,1.56-5.93,3.25-11.6,5-17-.19.59.25,1.92.34,2.55.13,1.01.27,2.01.41,3.02.26,1.93.53,3.87.8,5.8.54,3.86,1.09,7.73,1.66,11.59,1.57,10.76,2.81,21.6,4.77,32.29.92,5.01,2.54,12.62,8.69,13.41,3.92.5,6.57-2.16,8.11-5.49l13.23-40.17ZM80.26,89.62c3.84-12.15,7.02-22.08,10-31,2.91-8.71,4.62-17.79,4.13-27-.06-1.21-.18-2.26-.61-3.4-.4-1.06-.87-2.1-1.42-3.09-7.07-12.89-24.21-17.66-37.97-17.04-3.42.15-6.83.67-10.14,1.54C28.21,13.83,13.62,26.51,9.76,42.12c-.2.83-.71,2.24-1,7-.68,11.13-1.14,24.56,0,40,23.83.17,47.67.33,71.5.5ZM116.29,117.21c-.27-.46-.28-.92-.35-1.45-.13-1-.28-1.99-.42-2.98-.26-1.84-.57-3.66-.9-5.49-.68-3.7-1.36-7.4-1.97-11.1-1.76-10.73-4-22.43-2.48-33.3,1.44-10.28,6.02-19.92,12.1-28.26,3.14-4.31,8.82-11.94,19-18,4.91-2.92,18.27-10.87,36-8,22.72,3.67,37.74,21.54,41.12,43.71.43,2.79.39,5.61.39,8.42v29.37s-35.91,0-39.17,0c-6.61,0-13.21,0-19.82,0-3.3,0-6.61,0-9.91,0-2.87,0-5.01.42-6.95-2.01-.94-1.17-1.69-2.5-2.7-3.62-2.07-2.31-6.09-2.89-8.97-2.22-3.39.78-5.24,3.74-5.97,6.95l-8.98,27.99ZM189.76,46.31c0-2.04-1.55-3.69-3.45-3.69h-10.59v-12c0-2.04-1.55-3.69-3.45-3.69h-6.49c-1.91,0-3.45,1.65-3.45,3.69v12h-10.59c-1.91,0-3.46,1.65-3.46,3.69v5.55c0,2.04,1.55,3.69,3.46,3.69h10.59v12c0,2.04,1.55,3.69,3.45,3.69h6.49c1.91,0,3.45-1.65,3.45-3.69v-12h10.59c1.91,0,3.45-1.65,3.45-3.69v-5.55Z"/>
</svg>