<svg width="485.4" height="128.74823848057537" viewBox="0 0 370 98.13936596170764" class="looka-1j8o68f"><defs id="SvgjsDefs1162"></defs><g id="SvgjsG1163" featurekey="HKaMnE-0" transform="matrix(1.4026056799152222,0,0,1.4026056799152222,-13.874241738241412,-11.965187937411375)" fill="#46cdcf"><path xmlns="http://www.w3.org/2000/svg" d="M84.6,51.2c-0.2,0.5-0.3,0.9-0.5,1.4c-4.2,9.5-28,22.8-33.4,25.6c-0.2,0.1-0.5,0.2-0.6,0.3c-0.2-0.1-0.4-0.2-0.6-0.3  C44,75.4,20.2,62.8,16,53.2c-0.2-0.5-0.4-1.6-0.6-2H32c0.3,0,0.5-0.2,0.5-0.4l1.1-6.5l4.2,15.1c0.1,0.2,0.3,0.4,0.6,0.4  c0.3,0,0.5-0.2,0.5-0.5l2.6-19.6l1.9,9.9c0.1,0.2,0.3,0.4,0.5,0.4l5.7,0.1l5.7-0.1c0.2,0,0.5-0.2,0.5-0.4l0.9-3.2l3.3,14.3  c0.1,0.2,0.3,0.4,0.5,0.4h0c0.2,0,0.5-0.2,0.5-0.4l3.8-17.1l1.7,7.4c0.1,0.2,0.3,0.4,0.5,0.4L84.6,51.2z M31.1,49.3  c0.1,0,0.2-0.1,0.2-0.2l1.6-9.9c0-0.2,0.3-0.4,0.5-0.4c0.2,0,0.5,0.1,0.5,0.4l4.1,14.2l2.7-20.4c0-0.3,0.3-0.5,0.5-0.5  c0.3,0,0.5,0.2,0.5,0.4l2.6,14.6c0,0.2,0.2,0.4,0.4,0.4l4.7,0.1l4.9-0.1c0.2,0,0.4-0.1,0.4-0.4l1.3-6.3c0.1-0.2,0.3-0.4,0.5-0.4  c0.2,0,0.5,0.2,0.5,0.4l3.3,13.6l3.8-17.2c0.1-0.2,0.3-0.4,0.5-0.4c0,0,0,0,0,0c0.2,0,0.5,0.2,0.5,0.4l2.1,11.7l17.4,0  c3-10.1-2-21.7-11.9-26.1c-8-3.5-17.1-1.7-23.1,3.9c-6-5.6-15.1-7.5-23.1-3.9C17,27.6,12.1,39.2,15,49.3H31.1z"></path></g><g id="SvgjsG1164" featurekey="J3GnXt-0" transform="matrix(3.988513062903676,0,0,3.988513062903676,114.57562265286268,10.536055796580968)" fill="#46cdcf"><path d="M6.12 10.28 c1.3733 0 2.36 0.58666 2.96 1.76 c0.30666 -0.56 0.72666 -0.99334 1.26 -1.3 s1.1133 -0.46 1.74 -0.46 c2.3866 0 3.5866 1.3733 3.6 4.12 l0 5.6 l-1.8 0 l0 -5.38 c0 -0.93334 -0.16666 -1.61 -0.5 -2.03 s-0.84668 -0.63 -1.54 -0.63 c-0.81334 0 -1.42 0.24666 -1.82 0.74 s-0.6 1.1733 -0.6 2.04 l0 5.26 l-1.8 0 l0 -5.1 c0 -1.12 -0.16 -1.89 -0.48 -2.31 s-0.82666 -0.63 -1.52 -0.63 c-0.74666 0 -1.3433 0.28666 -1.79 0.86 s-0.67 1.3 -0.67 2.18 l0 5 l-1.8 0 l0 -9.48 l1.68 0 l0 1.48 l0.04 0 c0.2 -0.46666 0.59666 -0.87 1.19 -1.21 s1.21 -0.51 1.85 -0.51 z M22.74 10.28 c1.4533 0 2.5834 0.45664 3.39 1.37 s1.2167 2.17 1.23 3.77 l0 0.5 l-7.6 0 c0 0.77334 0.31 1.4233 0.93 1.95 s1.3767 0.79666 2.27 0.81 c0.98666 0 1.8533 -0.47334 2.6 -1.42 l1.36 1.04 c-1.0133 1.2933 -2.4134 1.94 -4.2 1.94 c-1.4533 0 -2.6234 -0.46334 -3.51 -1.39 s-1.3433 -2.1234 -1.37 -3.59 c0 -1.4133 0.45666 -2.59 1.37 -3.53 s2.09 -1.4233 3.53 -1.45 z M25.439999999999998 14.48 c-0.02666 -0.89334 -0.28 -1.5767 -0.76 -2.05 s-1.14 -0.71 -1.98 -0.71 c-0.56 0 -1.0633 0.13666 -1.51 0.41 s-0.79666 0.62668 -1.05 1.06 s-0.38 0.86334 -0.38 1.29 l5.68 0 z M39.019999999999996 4.880000000000001 l-0.000019531 15.12 l-1.8 0 l0 -1.36 l-0.04 0 c-0.34666 0.50666 -0.81666 0.9 -1.41 1.18 s-1.2233 0.42 -1.89 0.42 c-1.4267 -0.01334 -2.5834 -0.48668 -3.47 -1.42 s-1.3367 -2.12 -1.35 -3.56 c0 -1.4533 0.44334 -2.64 1.33 -3.56 s2.05 -1.3933 3.49 -1.42 c0.65334 0 1.28 0.14 1.88 0.42 s1.0733 0.67334 1.42 1.18 l0.04 0 l0 -7 l1.8 0 z M30.98 15.26 c0 0.97334 0.28666 1.7633 0.86 2.37 s1.3267 0.91666 2.26 0.93 c0.94666 0 1.7033 -0.30334 2.27 -0.91 s0.85 -1.4033 0.85 -2.39 c0 -0.97334 -0.28 -1.7633 -0.84 -2.37 s-1.3267 -0.91666 -2.3 -0.93 c-0.93334 0 -1.6833 0.30666 -2.25 0.92 s-0.85 1.4067 -0.85 2.38 z M42.800000000000004 5.800000000000001 c0.36 0 0.67002 0.13002 0.93002 0.39002 s0.39 0.57 0.39 0.93 c0 0.37334 -0.13334 0.68668 -0.4 0.94002 s-0.57332 0.38 -0.91998 0.38 c-0.37334 0 -0.68668 -0.12666 -0.94002 -0.38 s-0.38 -0.56668 -0.38 -0.94002 s0.13334 -0.68668 0.4 -0.94002 s0.57332 -0.38 0.91998 -0.38 z M43.7 10.52 l0 9.48 l-1.8 0 l0 -9.48 l1.8 0 z M51.06 10.3 c1.5067 0 2.72 0.5 3.64 1.5 l-1.36 1.24 c-0.65334 -0.70666 -1.44 -1.06 -2.36 -1.06 c-0.88 0 -1.5933 0.31334 -2.14 0.94 s-0.82 1.4333 -0.82 2.42 c0 0.93334 0.28666 1.7 0.86 2.3 s1.3067 0.90666 2.2 0.92 c0.94666 0 1.7133 -0.35334 2.3 -1.06 l1.28 1.28 c-0.85334 0.97334 -2.0534 1.46 -3.6 1.46 c-1.4533 0 -2.6366 -0.45334 -3.55 -1.36 s-1.3833 -2.1 -1.41 -3.58 c0.01334 -1.5067 0.48334 -2.7134 1.41 -3.62 s2.11 -1.3667 3.55 -1.38 z M60 10.28 c1.2 0 2.15 0.27328 2.85 0.81994 s1.07 1.3067 1.11 2.28 l0 5.08 c0 0.48 0.02666 0.99334 0.08 1.54 l-1.6 0 c-0.04 -0.42666 -0.06 -0.90666 -0.06 -1.44 l-0.04 0 c-0.41334 0.61334 -0.89 1.0467 -1.43 1.3 s-1.17 0.38 -1.89 0.38 c-0.97334 0 -1.7633 -0.26 -2.37 -0.78 s-0.91 -1.2067 -0.91 -2.06 c0 -1.08 0.45334 -1.8967 1.36 -2.45 s2.1866 -0.83 3.84 -0.83 l1.34 0 l0 -0.34 c0 -0.64 -0.21 -1.1433 -0.63 -1.51 s-0.97 -0.55 -1.65 -0.55 c-0.50666 0 -0.95 0.07666 -1.33 0.23 s-0.83 0.43668 -1.35 0.85002 l-1.08 -1.12 c1.0267 -0.90666 2.28 -1.3733 3.76 -1.4 z M57.540000000000006 17.259999999999998 c0 1.0267 0.68002 1.54 2.04 1.54 c0.81334 0 1.4633 -0.24334 1.95 -0.73 s0.73666 -1.19 0.75 -2.11 l0 -0.52 l-1.02 0 c-1.1733 0 -2.0866 0.15 -2.74 0.45 s-0.98 0.75666 -0.98 1.37 z"></path></g></svg>