<?xml version="1.0" encoding="UTF-8" standalone="no"?>
<!-- Created with Inkscape (http://www.inkscape.org/) -->
<svg
        version="1.1"
        id="svg2"
        width="461.45334"
        height="102.17333"
        viewBox="0 0 461.45334 102.17333"
        sodipodi:docname="EXAMION_Logo_mit_Claim_EN.eps"
        xmlns:inkscape="http://www.inkscape.org/namespaces/inkscape"
        xmlns:sodipodi="http://sodipodi.sourceforge.net/DTD/sodipodi-0.dtd"
        xmlns="http://www.w3.org/2000/svg"
        xmlns:svg="http://www.w3.org/2000/svg">
    <defs
            id="defs6" />
    <sodipodi:namedview
            id="namedview4"
            pagecolor="#ffffff"
            bordercolor="#000000"
            borderopacity="0.25"
            inkscape:showpageshadow="2"
            inkscape:pageopacity="0.0"
            inkscape:pagecheckerboard="0"
            inkscape:deskcolor="#d1d1d1" />
    <g
            id="g8"
            inkscape:groupmode="layer"
            inkscape:label="ink_ext_XXXXXX"
            transform="matrix(1.3333333,0,0,-1.3333333,0,102.17333)">
        <g
                id="g10"
                transform="scale(0.1)">
            <path
                    d="M 14.8164,756.945 V 274.621 H 362.387 v 91.203 H 143.336 V 475.02 h 199.711 v 91.207 H 143.336 v 99.515 h 211.441 v 91.203 H 14.8164"
                    style="fill:#231f20;fill-opacity:1;fill-rule:nonzero;stroke:none"
                    id="path12" />
            <path
                    d="m 1046.43,756.945 h 157.53 l 185.9,-482.324 h -140.97 l -35.93,102.953 H 1031.92 L 993.906,274.621 H 863.313 Z m 78.77,-99.515 h -1.37 l -62.21,-188.629 h 120.93 L 1125.2,657.43"
                    style="fill:#231f20;fill-opacity:1;fill-rule:nonzero;stroke:none"
                    id="path14" />
            <path
                    d="m 1443.71,756.945 h 202.46 L 1748.44,436.32 h 1.39 l 107.1,320.625 H 2051.8 V 274.621 h -125.76 l 2.07,370.391 h -1.38 L 1803.72,274.621 H 1685.57 L 1568.1,645.012 h -1.38 l 2.75,-370.391 h -125.76 v 482.324"
                    style="fill:#231f20;fill-opacity:1;fill-rule:nonzero;stroke:none"
                    id="path16" />
            <path
                    d="m 2135.4,756.949 h 128.53 V 274.625 H 2135.4 v 482.324"
                    style="fill:#231f20;fill-opacity:1;fill-rule:nonzero;stroke:none"
                    id="path18" />
            <path
                    d="m 2572.06,765.23 c 158.93,0 241.86,-94.667 241.86,-249.445 0,-153.39 -84.3,-249.465 -241.86,-249.465 -157.55,0 -241.85,96.075 -241.85,249.465 0,154.778 82.93,249.445 241.85,249.445 m 0,-403.539 c 78.09,0 109.18,74.622 109.18,154.094 0,83.613 -31.09,154.094 -109.18,154.094 -78.08,0 -109.17,-70.481 -109.17,-154.094 0,-79.472 31.09,-154.094 109.17,-154.094"
                    style="fill:#231f20;fill-opacity:1;fill-rule:nonzero;stroke:none"
                    id="path20" />
            <path
                    d="m 2882.96,756.945 h 163.77 l 163.07,-327.55 h 1.4 l -2.1,327.55 h 117.47 V 274.621 h -159.61 l -168.61,329.617 h -1.38 l 4.14,-329.617 h -118.15 v 482.324"
                    style="fill:#231f20;fill-opacity:1;fill-rule:nonzero;stroke:none"
                    id="path22" />
            <path
                    d="m 3460.88,727.305 c 0,21.554 -17.47,39.023 -39.02,39.023 -21.48,0 -38.94,-17.469 -38.94,-39.023 0,-21.571 17.46,-39.043 38.94,-39.043 21.55,0 39.02,17.472 39.02,39.043 m -8.57,0 c 0,-18.633 -12.88,-30.992 -30.45,-30.992 -17.49,0 -30.37,12.359 -30.37,30.992 0,18.515 12.88,30.992 30.37,30.992 17.57,0 30.45,-12.477 30.45,-30.992 m -11.21,-21.25 -7.84,12.777 c -2.2,3.566 -3.87,5.438 -5.24,6.481 5.66,1.148 10.04,4.71 10.04,11.613 0,7.75 -5.43,12.777 -15.58,12.777 h -15.49 v -43.648 h 9.72 v 17.91 c 2.41,0 3.46,-0.844 5.35,-4.086 l 8.28,-13.824 z m -12.86,30.347 c 0,-4.507 -3.36,-5.757 -7.54,-5.757 h -3.99 v 11.636 h 4.71 c 4.95,0 6.82,-2.218 6.82,-5.879"
                    style="fill:#231f20;fill-opacity:1;fill-rule:nonzero;stroke:none"
                    id="path24" />
            <path
                    d="M 832.781,757.297 H 693.945 L 624.512,636.75 693.945,516.223 624.512,395.676 693.945,275.148 H 832.781 L 693.945,516.223 832.781,757.297"
                    style="fill:#231f20;fill-opacity:1;fill-rule:nonzero;stroke:none"
                    id="path26" />
            <path
                    d="M 624.504,636.754 555.07,757.301 H 416.215 L 555.07,516.23 416.215,275.137 H 555.07 l 69.434,120.547 69.43,120.546 -69.43,120.524"
                    style="fill:#a21126;fill-opacity:1;fill-rule:nonzero;stroke:none"
                    id="path28" />
            <path
                    d="M 0,38.7031 H 14.1484 L 53.7539,95.6758 91.9063,38.7031 H 106.941 L 61.4375,104.445 103.539,163.73 H 89.7539 L 54.2773,113.219 19.1602,163.73 H 4.64844 L 46.5664,104.445 Z m 116.805,42.0977 h 44.957 v 12.3555 h -44.957 z m 81.683,72.1872 h 12.723 c 17.019,0 31.531,-1.25 31.531,-21.675 0,-17.368 -16.664,-22.922 -31.172,-22.922 H 198.488 Z M 186.133,38.7031 h 12.355 v 58.9414 h 10.203 c 11.836,0 17.207,-0.5429 24.375,-16.664 l 18.09,-42.2774 h 13.621 l -21.332,48.3594 c -3.945,8.4258 -6.074,13.8005 -16.117,15.0465 v 0.368 c 15.414,1.968 27.774,12.714 27.774,28.836 0,22.941 -14.512,32.417 -36.731,32.417 h -32.238 z m 151.719,0 h 11.109 c -0.887,6.2735 -0.887,11.8282 -0.887,19.1524 v 40.3164 c 0,23.8201 -9.496,34.0471 -32.078,34.0471 -8.047,0 -19.883,-2.875 -26.867,-6.281 v -10.926 c 8.434,5.375 17.387,7.527 26.867,7.527 15.234,0 20.789,-7.891 20.789,-23.4648 v -4.6679 h -2.152 c -23.649,0 -56.25,-1.4297 -56.25,-32.0625 0,-8.2266 4.125,-25.793 30.105,-25.793 11.27,0 23.992,5.9101 29.02,16.8398 h 0.344 z m -1.067,40.4883 c 0,-9.8633 -0.543,-32.9648 -27.047,-32.9648 -10.383,0 -18.996,4.4687 -18.996,16.4804 0,20.0664 23.305,22.0391 42.821,22.0391 h 3.222 z m 39.242,50.8716 h -12.375 l 32.442,-92.4302 -2.336,-8.0703 C 390.176,17.75 386.957,9.67969 377.273,9.67969 c -4.125,0 -6.277,0.72661 -8.433,1.42971 L 367.777,1.42578 C 371.543,0.542969 375.848,0 379.949,0 c 12.723,0 19.18,12.5391 23.469,25.0742 L 439.965,130.063 H 428.148 L 401.805,53.9336 h -0.18 z M 504.641,41.9219 c 6.621,-2.8594 16.125,-5.3711 28.297,-5.3711 19.359,0 41.035,10.039 41.035,35.2969 0,36.5433 -57.332,36.7223 -57.332,61.8003 0,16.118 14.144,21.497 27.043,21.497 8.433,0 17.207,-1.614 22.765,-4.653 l 1.969,11.274 c -8.59,3.234 -18.453,4.121 -24.551,4.121 -22.039,0 -39.586,-12.535 -39.586,-32.602 0,-32.781 57.332,-35.8241 57.332,-60.3748 0,-17.7266 -12.715,-25.6172 -28.129,-25.6172 -11.656,0 -20.25,2.6992 -27.593,7.3476 z m 94.043,88.1411 H 586.332 L 618.75,37.6328 616.414,29.5625 C 612.836,17.75 609.613,9.67969 599.953,9.67969 c -4.125,0 -6.277,0.72661 -8.43,1.42971 L 590.457,1.42578 C 594.219,0.542969 598.504,0 602.629,0 c 12.723,0 19.18,12.5391 23.469,25.0742 L 662.641,130.063 H 650.828 L 624.484,53.9336 h -0.179 z m 72.91,-89.2075 c 8.074,-3.2227 16.847,-4.3047 25.621,-4.3047 13.785,0 31.898,6.6367 31.898,25.9726 0,29.9297 -44.98,27.7774 -44.98,44.7816 0,11.652 8.074,15.234 19.703,15.234 6.281,0 14.352,-1.609 20.246,-4.305 l 1.09,9.86 c -8.074,3.039 -17.75,4.125 -22.582,4.125 -15.051,0 -29.746,-6.824 -29.746,-24.914 0,-26.5042 43.894,-23.1058 43.894,-44.7816 0,-10.3789 -9.48,-16.2968 -20.246,-16.2968 -8.773,0 -17.008,2.3359 -23.828,5.7382 z m 118.414,89.2075 h -20.785 v 25.984 l -11.27,-3.945 v -22.039 h -17.93 v -9.676 h 17.93 V 66.9922 c 0,-16.6406 0.703,-30.4414 20.766,-30.4414 5.558,0 11.109,1.4258 13.808,2.5117 l -0.726,9.3164 c -3.219,-1.2695 -6.098,-2.1523 -10.379,-2.1523 -9.145,0 -12.199,6.8007 -12.199,15.0547 v 59.1057 h 20.785 z m 82.773,-77.0357 c -5.371,-3.4023 -17.386,-6.8007 -25.613,-6.8007 -19.727,0 -30.109,15.5781 -30.109,34.9375 h 62.527 v 5.7343 c 0,24.5356 -10.57,45.3206 -36.363,45.3206 -23.125,0 -38.524,-19.883 -38.524,-47.8362 0,-27.4101 11.289,-47.832 41.559,-47.832 8.414,0 18.637,1.7851 26.523,5.0078 z m -55.722,37.793 c 0,15.0547 10.218,31.7187 26.867,31.7187 16.844,0 23.304,-15.758 23.304,-31.7187 z M 1023.98,38.7031 V 101.59 c 0,17.726 -10.41,30.629 -28.859,30.629 -14.332,0 -25.074,-8.614 -29.199,-19.364 h -0.344 c -2.879,15.965 -16.14,19.364 -24.191,19.364 -19.52,0 -24.895,-11.469 -28.473,-17.75 l -0.367,0.179 v 15.415 h -10.926 c 0.707,-7.34 0.707,-14.504 0.707,-21.493 V 38.7031 h 11.289 v 50.5117 c 0,22.7582 12.172,33.3242 24.551,33.3242 14.512,0 19.34,-10.203 19.34,-23.1054 V 38.7031 h 11.289 v 50.5117 c 0,22.7582 12.172,33.3242 24.531,33.3242 14.512,0 19.362,-10.203 19.362,-23.1054 V 38.7031 Z m 20.77,2.1524 c 8.07,-3.2227 16.84,-4.3047 25.61,-4.3047 13.81,0 31.9,6.6367 31.9,25.9726 0,29.9297 -44.98,27.7774 -44.98,44.7816 0,11.652 8.08,15.234 19.71,15.234 6.28,0 14.35,-1.609 20.24,-4.305 l 1.09,9.86 c -8.07,3.039 -17.75,4.125 -22.58,4.125 -15.05,0 -29.75,-6.824 -29.75,-24.914 0,-26.5042 43.9,-23.1058 43.9,-44.7816 0,-10.3789 -9.48,-16.2968 -20.25,-16.2968 -8.77,0 -17,2.3359 -23.81,5.7382 z m 183.43,53.5508 c 0,-5.5586 4.49,-8.5938 8.62,-8.4141 3.94,-0.1797 8.41,2.8555 8.41,8.4141 0,5.5507 -4.47,8.6137 -8.41,8.6137 -4.13,0 -8.62,-3.063 -8.62,-8.6137 m 163.4,58.5817 h 18.09 c 27.95,0 50.69,-12.718 50.69,-50.879 0,-38.3356 -23.1,-52.6637 -58.58,-52.6637 h -10.2 z M 1379.22,38.7031 h 21.85 c 41.38,0 71.65,17.3633 71.65,62.7029 0,36.547 -17.73,62.324 -62.51,62.324 h -30.99 z m 120.54,0 h 11.29 v 91.3599 h -11.29 z m 11.29,130.7659 h -11.29 v -15.055 h 11.29 z m 36.73,-85.0862 c 0,17.7262 5.55,38.1562 27.05,38.1562 20.61,0 27.05,-16.121 27.05,-38.1562 0,-16.6601 -7.35,-36.0039 -27.77,-36.0039 -19.17,0 -26.33,18.0938 -26.33,36.0039 m 65.39,45.6802 h -11.29 V 119.68 h -0.37 c -8.41,10.925 -16.3,12.539 -28.47,12.539 -26.87,0 -37.62,-20.067 -37.62,-47.8362 0,-20.2461 9.32,-45.6797 38.52,-45.6797 11.63,0 21.68,4.6485 27.75,17.9102 h 0.37 c 0,-25.8008 -2.52,-46.93361 -31.54,-46.93361 -9.84,0 -19.88,2.85941 -26.86,6.43751 L 1542.77,4.85156 C 1547.42,3.39844 1558.35,0 1570.34,0 c 31.35,0 42.83,20.7852 42.83,46.2266 z m 28.47,-91.3599 h 11.29 v 91.3599 h -11.29 z m 11.29,130.7659 h -11.29 v -15.055 h 11.29 z m 69.15,-39.406 h -20.79 v 25.984 l -11.27,-3.945 v -22.039 h -17.93 v -9.676 h 17.93 V 66.9922 c 0,-16.6406 0.71,-30.4414 20.77,-30.4414 5.56,0 11.11,1.4258 13.81,2.5117 l -0.73,9.3164 c -3.22,-1.2695 -6.1,-2.1523 -10.39,-2.1523 -9.13,0 -12.19,6.8007 -12.19,15.0547 v 59.1057 h 20.79 z m 73.98,-91.3599 h 11.11 c -0.89,6.2735 -0.89,11.8282 -0.89,19.1524 v 40.3164 c 0,23.8201 -9.5,34.0471 -32.08,34.0471 -8.05,0 -19.88,-2.875 -26.86,-6.281 v -10.926 c 8.43,5.375 17.39,7.527 26.86,7.527 15.24,0 20.79,-7.891 20.79,-23.4648 v -4.6679 h -2.15 c -23.65,0 -56.25,-1.4297 -56.25,-32.0625 0,-8.2266 4.13,-25.793 30.11,-25.793 11.27,0 23.99,5.9101 29.02,16.8398 h 0.34 z m -1.07,40.4883 c 0,-9.8633 -0.54,-32.9648 -27.05,-32.9648 -10.38,0 -18.99,4.4687 -18.99,16.4804 0,20.0664 23.28,22.0391 42.82,22.0391 h 3.22 z m 39.41,-40.4883 h 11.29 V 173.055 h -11.29 z m 91.72,0 h 12.36 V 163.73 h -12.36 z m 163.01,0 V 101.59 c 0,17.726 -10.38,30.629 -28.83,30.629 -14.33,0 -25.08,-8.614 -29.21,-19.364 h -0.36 c -2.86,15.965 -16.12,19.364 -24.17,19.364 -19.54,0 -24.91,-11.469 -28.49,-17.75 l -0.37,0.179 v 15.415 h -10.92 c 0.72,-7.34 0.72,-14.504 0.72,-21.493 V 38.7031 h 11.29 v 50.5117 c 0,22.7582 12.18,33.3242 24.53,33.3242 14.51,0 19.36,-10.203 19.36,-23.1054 V 38.7031 h 11.29 v 50.5117 c 0,22.7582 12.18,33.3242 24.53,33.3242 14.51,0 19.36,-10.203 19.36,-23.1054 V 38.7031 Z m 81.35,0 h 11.11 c -0.91,6.2735 -0.91,11.8282 -0.91,19.1524 v 40.3164 c 0,23.8201 -9.5,34.0471 -32.06,34.0471 -8.07,0 -19.88,-2.875 -26.88,-6.281 v -10.926 c 8.42,5.375 17.38,7.527 26.88,7.527 15.22,0 20.77,-7.891 20.77,-23.4648 v -4.6679 h -2.16 c -23.64,0 -56.24,-1.4297 -56.24,-32.0625 0,-8.2266 4.13,-25.793 30.1,-25.793 11.3,0 24.01,5.9101 29.03,16.8398 h 0.36 z m -1.09,40.4883 c 0,-9.8633 -0.52,-32.9648 -27.05,-32.9648 -10.38,0 -19,4.4687 -19,16.4804 0,20.0664 23.31,22.0391 42.83,22.0391 h 3.22 z m 46.4,5.1914 c 0,17.7262 5.56,38.1562 27.06,38.1562 20.6,0 27.04,-16.121 27.04,-38.1562 0,-16.6601 -7.34,-36.0039 -27.77,-36.0039 -19.16,0 -26.33,18.0938 -26.33,36.0039 m 65.39,45.6802 h -11.29 V 119.68 h -0.36 c -8.41,10.925 -16.3,12.539 -28.48,12.539 -26.86,0 -37.61,-20.067 -37.61,-47.8362 0,-20.2461 9.3,-45.6797 38.5,-45.6797 11.65,0 21.69,4.6485 27.77,17.9102 h 0.36 c 0,-25.8008 -2.51,-46.93361 -31.53,-46.93361 -9.85,0 -19.88,2.85941 -26.87,6.43751 L 2210.78,4.85156 C 2215.43,3.39844 2226.36,0 2238.36,0 c 31.35,0 42.82,20.7852 42.82,46.2266 z m 28.48,-91.3599 h 11.29 v 91.3599 h -11.29 z m 11.29,130.7659 h -11.29 v -15.055 h 11.29 z m 29.74,-130.7659 h 11.27 v 50.5117 c 0,15.2302 6.46,33.3242 27.07,33.3242 15.58,0 21.67,-11.105 21.67,-28.2968 V 38.7031 h 11.29 v 58.3985 c 0,20.0624 -8.61,35.1174 -31.17,35.1174 -19,0 -25.8,-10.227 -29.56,-18.453 h -0.36 v 16.297 h -10.93 c 0.72,-7.34 0.72,-14.504 0.72,-21.493 z m 107.83,45.6797 c 0,17.7262 5.56,38.1562 27.06,38.1562 20.6,0 27.06,-16.121 27.06,-38.1562 0,-16.6601 -7.35,-36.0039 -27.78,-36.0039 -19.16,0 -26.34,18.0938 -26.34,36.0039 m 65.4,45.6802 h -11.28 V 119.68 h -0.37 c -8.41,10.925 -16.3,12.539 -28.47,12.539 -26.89,0 -37.64,-20.067 -37.64,-47.8362 0,-20.2461 9.32,-45.6797 38.52,-45.6797 11.65,0 21.68,4.6485 27.77,17.9102 h 0.37 c 0,-25.8008 -2.52,-46.93361 -31.54,-46.93361 -9.86,0 -19.88,2.85941 -26.87,6.43751 l -0.9,-11.26564 C 2458.18,3.39844 2469.11,0 2481.1,0 c 31.35,0 42.82,20.7852 42.82,46.2266 z m 132.93,-35.6567 c 0,-5.5586 4.46,-8.5938 8.59,-8.4141 3.95,-0.1797 8.41,2.8555 8.41,8.4141 0,5.5507 -4.46,8.6137 -8.41,8.6137 -4.13,0 -8.59,-3.063 -8.59,-8.6137 m 147.43,-52.4844 c 6.62,-2.8594 16.12,-5.3711 28.29,-5.3711 19.37,0 41.04,10.039 41.04,35.2969 0,36.5433 -57.34,36.7223 -57.34,61.8003 0,16.118 14.15,21.497 27.05,21.497 8.43,0 17.21,-1.614 22.76,-4.653 l 1.97,11.274 c -8.61,3.234 -18.45,4.121 -24.55,4.121 -22.03,0 -39.58,-12.535 -39.58,-32.602 0,-32.781 57.31,-35.8241 57.31,-60.3748 0,-17.7266 -12.72,-25.6172 -28.11,-25.6172 -11.65,0 -20.25,2.6992 -27.59,7.3476 z m 155.48,11.1054 c -5.37,-3.4023 -17.36,-6.8007 -25.62,-6.8007 -19.7,0 -30.08,15.5781 -30.08,34.9375 h 62.53 v 5.7343 c 0,24.5356 -10.59,45.3206 -36.37,45.3206 -23.13,0 -38.52,-19.883 -38.52,-47.8362 0,-27.4101 11.29,-47.832 41.56,-47.832 8.41,0 18.64,1.7851 26.5,5.0078 z m -55.7,37.793 c 0,15.0547 10.2,31.7187 26.86,31.7187 16.85,0 23.29,-15.758 23.29,-31.7187 z m 85.27,-52.1172 h 11.29 v 45.1367 c 0,16.4842 4.82,36.5472 22.75,36.5472 2.86,0 5.9,-0.364 8.24,-1.071 v 11.817 c -1.98,0.543 -5.19,1.086 -7.9,1.086 -11.63,0 -19.33,-9.496 -23.45,-19.703 h -0.37 v 17.547 h -11.27 c 0.71,-6.622 0.71,-10.383 0.71,-20.422 z m 124.69,91.3599 h -11.84 l -26.5,-79.0083 h -0.36 l -25.26,79.0083 h -12.35 l 30.99,-91.3599 h 13.24 z m 17,-91.3599 h 11.29 v 91.3599 h -11.29 z m 11.29,130.7659 h -11.29 v -15.055 h 11.29 z m 90.1,-40.828 c -3.22,1.062 -11.09,3.578 -22.02,3.578 -27.07,0 -45.15,-19.703 -45.15,-47.8362 0,-25.4375 14.32,-47.832 43.71,-47.832 8.61,0 15.77,0.539 23.46,3.2148 l -1.07,10.586 c -6.8,-2.5118 -13.44,-4.125 -20.6,-4.125 -20.59,0 -33.13,17.3672 -33.13,38.1562 0,22.2152 12.35,38.1562 34.4,38.1562 6.07,0 13.41,-1.973 19.52,-4.648 z m 81.7,-75.6137 c -5.39,-3.4023 -17.38,-6.8007 -25.61,-6.8007 -19.73,0 -30.11,15.5781 -30.11,34.9375 h 62.53 v 5.7343 c 0,24.5356 -10.56,45.3206 -36.37,45.3206 -23.12,0 -38.51,-19.883 -38.51,-47.8362 0,-27.4101 11.29,-47.832 41.55,-47.832 8.41,0 18.63,1.7851 26.52,5.0078 z m -55.72,37.793 c 0,15.0547 10.21,31.7187 26.87,31.7187 16.84,0 23.3,-15.758 23.3,-31.7187 h -50.17"
                    style="fill:#231f20;fill-opacity:1;fill-rule:nonzero;stroke:none"
                    id="path30" />
        </g>
    </g>
</svg>
