<svg width="193" height="50" fill="none" xmlns="http://www.w3.org/2000/svg"><path d="M74.42 22.7c-1.75-1.473-4.22-2.187-7.362-2.187h-.808c-.269 0-.493.044-.763.044-.359.045-.673.045-1.032.134-.314.045-1.84.402-2.379.492v-2.858H74.51v-5.403h-19.3v24.2h11.176c3.187 0 5.521-.535 7.002-1.607 1.526-1.071 2.514-2.232 3.052-3.527.225-.58.404-1.161.494-1.697.09-.536.135-1.071.135-1.518 0-2.59-.898-4.599-2.648-6.072zm-5.297 8.306c-.538.446-1.122.714-1.75.893-.36.089-.719.134-1.033.178-.359.045-.628.045-.897.045h-3.367v-5.805c.404-.089 1.75-.402 2.02-.446.27-.045.539-.09.853-.134.18 0 .359-.045.538-.045h.54c1.3 0 2.243.313 2.917.982.673.626.987 1.43.987 2.367 0 .804-.27 1.518-.808 1.965zm17.191 6.117h-6.912v-24.2h6.912v24.2zm104.044-5.403V12.922h-10.009c-3.681 0-6.374.76-8.08 2.277-1.705 1.518-2.827 3.17-3.411 4.957a13.196 13.196 0 00-.539 2.5 20.49 20.49 0 00-.134 2.188c0 .938.045 1.875.179 2.679.135.848.27 1.563.449 2.188.045.178.09.312.09.49.045.135.314 1.117.449 1.474H166.3v5.403h26.616V31.72h-2.558zm-6.912 0h-7.227c-.09-.402-.404-1.473-.449-1.652a21.328 21.328 0 01-.134-.715 10.26 10.26 0 01-.225-1.25l-.134-1.34v-1.83c0-.491.044-1.027.134-1.563a7.041 7.041 0 011.661-3.438c.898-1.027 2.514-1.563 4.892-1.563h1.392V31.72h.09zM92.598 15.556c2.424-2.143 5.431-3.214 9.022-3.214 3.546 0 6.553 1.071 8.977 3.214 2.424 2.144 3.681 5.314 3.681 9.466 0 4.153-1.212 7.278-3.681 9.422-2.424 2.143-5.431 3.214-8.977 3.214-3.59 0-6.598-1.071-9.022-3.214-2.424-2.144-3.636-5.27-3.636-9.422 0-4.152 1.212-7.322 3.636-9.466zm4.758 14.512c.853 1.429 2.244 2.143 4.264 2.143 1.975 0 3.366-.714 4.219-2.143.853-1.429 1.302-3.126 1.302-5.046 0-1.92-.449-3.616-1.302-5.045-.853-1.429-2.244-2.143-4.219-2.143-2.02 0-3.456.714-4.264 2.143-.853 1.429-1.257 3.125-1.257 5.045s.449 3.572 1.257 5.046zm30.971 3.036a68.74 68.74 0 00-.539-2.411 19.734 19.734 0 00-.942-2.902c-.359-.893-.808-1.742-1.302-2.59a10.983 10.983 0 00-1.751-2.277v14.243h-6.912V12.922h6.912c.225.223.494.447.719.714.269.268.493.536.718.849a27.75 27.75 0 011.616 2.054c.538.759.987 1.518 1.436 2.277.494.848.943 1.652 1.347 2.456.403.804.673 1.518.852 2.188h.135c.18-.67.449-1.384.853-2.233a34.33 34.33 0 011.346-2.5 28.19 28.19 0 011.257-1.92c.449-.625.898-1.25 1.302-1.786.314-.402.673-.76.987-1.117.314-.357.629-.67.943-.937h6.912v24.2h-6.912V22.88a11.37 11.37 0 00-.898 1.027 10.51 10.51 0 00-.987 1.474c-.539.893-1.033 1.92-1.526 3.17-.494 1.25-.898 2.768-1.167 4.51h-4.399v.044zm34.831-7.367v-5.403h-8.977v-2.01h8.932v-5.402h-15.845v24.2h16.473V31.72h-9.56v-5.983h8.977zM52.74 20.423h-7.586v-7.546h-9.201v7.546h-7.586v9.154h7.586v7.546h9.201v-7.546h7.586v-9.154z" fill="#377E37"/><path fill-rule="evenodd" clip-rule="evenodd" d="M81.736 42.391C39.409 55.161 0 42.481 0 24.8 0 6.359 41.923-4.715 84.609 7.698c-6.643-.357-17.102-1.652-28.682-1.072C-5.88 9.841 6.463 50.607 81.736 42.391z" fill="#377E37"/></svg>